<svg width="320" height="165" viewBox="0 0 320 165" fill="none" xmlns="http://www.w3.org/2000/svg" role="img" aria-label="Most Used Languages">
  <style>
    .title { font: 700 16px 'JetBrains Mono','Fira Code',ui-monospace,Menlo,Consolas,monospace; fill: #00F0FF; }
    .lang { font: 400 11px 'JetBrains Mono','Fira Code',ui-monospace,Menlo,Consolas,monospace; fill: #EAFEFF; }
  </style>
  <rect width="320" height="165" rx="4.5" fill="#07070C"/>
  <text class="title" x="25" y="35">Most Used Languages</text>
  <clipPath id="bar"><rect width="270" height="8" rx="4"/></clipPath>
  <g transform="translate(25,49)" clip-path="url(#bar)">
    <rect width="270" height="8" fill="#5B6470" fill-opacity="0.3"/>
    <rect x="0.00" width="57.25" height="8" fill="#b07219"/><rect x="57.25" width="54.49" height="8" fill="#e34c26"/><rect x="111.74" width="52.40" height="8" fill="#f1e05a"/><rect x="164.14" width="23.59" height="8" fill="#3178c6"/><rect x="187.73" width="20.76" height="8" fill="#F05138"/><rect x="208.49" width="18.52" height="8" fill="#3572A5"/><rect x="227.02" width="17.73" height="8" fill="#dea584"/><rect x="244.74" width="8.62" height="8" fill="#f34b7d"/>
  </g>
  <circle cx="30" cy="74" r="5" fill="#b07219"/><text class="lang" x="43" y="78">Java 21.20%</text><circle cx="30" cy="95" r="5" fill="#e34c26"/><text class="lang" x="43" y="99">HTML 20.18%</text><circle cx="30" cy="116" r="5" fill="#f1e05a"/><text class="lang" x="43" y="120">JavaScript 19.41%</text><circle cx="30" cy="137" r="5" fill="#3178c6"/><text class="lang" x="43" y="141">TypeScript 8.74%</text><circle cx="175" cy="74" r="5" fill="#F05138"/><text class="lang" x="188" y="78">Swift 7.69%</text><circle cx="175" cy="95" r="5" fill="#3572A5"/><text class="lang" x="188" y="99">Python 6.86%</text><circle cx="175" cy="116" r="5" fill="#dea584"/><text class="lang" x="188" y="120">Rust 6.56%</text><circle cx="175" cy="137" r="5" fill="#f34b7d"/><text class="lang" x="188" y="141">C++ 3.19%</text>
</svg>
