<svg width="320" height="165" viewBox="0 0 320 165" fill="none" xmlns="http://www.w3.org/2000/svg" role="img" aria-label="Most Used Languages">
  <style>
    .title { font: 700 16px 'JetBrains Mono','Fira Code',ui-monospace,Menlo,Consolas,monospace; fill: #00F0FF; }
    .lang { font: 400 11px 'JetBrains Mono','Fira Code',ui-monospace,Menlo,Consolas,monospace; fill: #EAFEFF; }
  </style>
  <rect width="320" height="165" rx="4.5" fill="#07070C"/>
  <text class="title" x="25" y="35">Most Used Languages</text>
  <clipPath id="bar"><rect width="270" height="8" rx="4"/></clipPath>
  <g transform="translate(25,49)" clip-path="url(#bar)">
    <rect width="270" height="8" fill="#5B6470" fill-opacity="0.3"/>
    <rect x="0.00" width="57.69" height="8" fill="#b07219"/><rect x="57.69" width="54.87" height="8" fill="#e34c26"/><rect x="112.55" width="53.10" height="8" fill="#f1e05a"/><rect x="165.65" width="23.83" height="8" fill="#3178c6"/><rect x="189.48" width="20.92" height="8" fill="#F05138"/><rect x="210.40" width="17.86" height="8" fill="#dea584"/><rect x="228.26" width="15.88" height="8" fill="#3572A5"/><rect x="244.14" width="8.69" height="8" fill="#f34b7d"/>
  </g>
  <circle cx="30" cy="74" r="5" fill="#b07219"/><text class="lang" x="43" y="78">Java 21.37%</text><circle cx="30" cy="95" r="5" fill="#e34c26"/><text class="lang" x="43" y="99">HTML 20.32%</text><circle cx="30" cy="116" r="5" fill="#f1e05a"/><text class="lang" x="43" y="120">JavaScript 19.67%</text><circle cx="30" cy="137" r="5" fill="#3178c6"/><text class="lang" x="43" y="141">TypeScript 8.83%</text><circle cx="175" cy="74" r="5" fill="#F05138"/><text class="lang" x="188" y="78">Swift 7.75%</text><circle cx="175" cy="95" r="5" fill="#dea584"/><text class="lang" x="188" y="99">Rust 6.61%</text><circle cx="175" cy="116" r="5" fill="#3572A5"/><text class="lang" x="188" y="120">Python 5.88%</text><circle cx="175" cy="137" r="5" fill="#f34b7d"/><text class="lang" x="188" y="141">C++ 3.22%</text>
</svg>
